<svg xmlns="http://www.w3.org/2000/svg" width="500" height="500" viewBox="0 0 500 500">
  <defs>
    <linearGradient id="bg" x1="0" y1="0" x2="1" y2="1">
      <stop offset="0" stop-color="#181826"/>
      <stop offset="1" stop-color="#0d0d16"/>
    </linearGradient>
    <radialGradient id="glow" cx="0.5" cy="0.34" r="0.65">
      <stop offset="0" stop-color="#dc2626" stop-opacity="0.38"/>
      <stop offset="1" stop-color="#dc2626" stop-opacity="0"/>
    </radialGradient>
  </defs>
  <rect width="500" height="500" fill="url(#bg)"/>
  <rect width="500" height="500" fill="url(#glow)"/>
  <g opacity="0.9"><g transform="translate(250,165)"><rect x="-120" y="-8" width="10" height="16" rx="3" fill="#ffffff" opacity="0.85"/><rect x="-96" y="-26" width="10" height="52" rx="3" fill="#ffffff" opacity="0.85"/><rect x="-72" y="-44" width="10" height="88" rx="3" fill="#ffffff" opacity="0.85"/><rect x="-48" y="-30" width="10" height="60" rx="3" fill="#ffffff" opacity="0.85"/><rect x="-24" y="-16" width="10" height="32" rx="3" fill="#ffffff" opacity="0.85"/><rect x="0" y="-38" width="10" height="76" rx="3" fill="#ffffff" opacity="0.85"/><rect x="24" y="-22" width="10" height="44" rx="3" fill="#ffffff" opacity="0.85"/><rect x="48" y="-44" width="10" height="88" rx="3" fill="#ffffff" opacity="0.85"/><rect x="72" y="-30" width="10" height="60" rx="3" fill="#ffffff" opacity="0.85"/><rect x="96" y="-12" width="10" height="24" rx="3" fill="#ffffff" opacity="0.85"/><rect x="112" y="-20" width="10" height="40" rx="3" fill="#ffffff" opacity="0.85"/></g></g>
  <rect x="346" y="28" width="126" height="44" rx="10" fill="#22c55e"/>
  <text x="409" y="57" font-family="Arial,Helvetica,sans-serif" font-size="21" font-weight="800" fill="#ffffff" text-anchor="middle" letter-spacing="1">FREE</text>
  <text x="250" y="292" font-family="Arial,Helvetica,sans-serif" font-size="44" font-weight="800" fill="#ffffff" text-anchor="middle">CamelCrusher</text>
  <text x="250" y="330" font-family="Arial,Helvetica,sans-serif" font-size="20" font-weight="600" fill="#dc2626" text-anchor="middle" letter-spacing="1">DISTORTION</text>
  <rect x="180" y="352" width="140" height="3" rx="1.5" fill="#dc2626" opacity="0.7"/>
  <text x="250" y="462" font-family="Arial,Helvetica,sans-serif" font-size="15" font-weight="700" fill="#7a7a8c" text-anchor="middle" letter-spacing="3">DJBILBOX BEATS</text>
</svg>
