<svg xmlns="http://www.w3.org/2000/svg" viewBox="0 0 400 400" width="400" height="400">
  <defs>
    <linearGradient id="fiBg" x1="0" y1="0" x2="1" y2="1">
      <stop offset="0" stop-color="#1a2033"/>
      <stop offset="1" stop-color="#0a0d16"/>
    </linearGradient>
    <linearGradient id="fiGreen" x1="0" y1="0" x2="0" y2="1">
      <stop offset="0" stop-color="#2ecc71"/>
      <stop offset="1" stop-color="#1db954"/>
    </linearGradient>
  </defs>
  <rect width="400" height="400" fill="url(#fiBg)"/>
  <!-- piano keys motif -->
  <g transform="translate(70,150)">
    <rect x="0" y="0" width="36" height="120" rx="3" fill="#e8e8ec"/>
    <rect x="42" y="0" width="36" height="120" rx="3" fill="#e8e8ec"/>
    <rect x="84" y="0" width="36" height="120" rx="3" fill="#e8e8ec"/>
    <rect x="126" y="0" width="36" height="120" rx="3" fill="#e8e8ec"/>
    <rect x="168" y="0" width="36" height="120" rx="3" fill="#e8e8ec"/>
    <rect x="224" y="0" width="36" height="120" rx="3" fill="#e8e8ec"/>
    <rect x="24" y="0" width="22" height="74" rx="2" fill="#1a1a1f"/>
    <rect x="66" y="0" width="22" height="74" rx="2" fill="#1a1a1f"/>
    <rect x="150" y="0" width="22" height="74" rx="2" fill="#1a1a1f"/>
    <rect x="192" y="0" width="22" height="74" rx="2" fill="#1a1a1f"/>
  </g>
  <text x="200" y="70" font-family="Arial Black, sans-serif" font-weight="900" font-size="42" fill="#f4f4f7" text-anchor="middle">FREE VST</text>
  <text x="200" y="110" font-family="Arial Black, sans-serif" font-weight="900" font-size="34" fill="url(#fiGreen)" text-anchor="middle">INSTRUMENTS</text>
  <rect x="120" y="330" width="160" height="44" rx="22" fill="url(#fiGreen)"/>
  <text x="200" y="359" font-family="Arial Black, sans-serif" font-weight="900" font-size="22" fill="#0a0d16" text-anchor="middle">DOWNLOAD</text>
</svg>
