<svg xmlns="http://www.w3.org/2000/svg" viewBox="0 0 400 400" width="400" height="400">
  <defs>
    <linearGradient id="feBg" x1="0" y1="0" x2="1" y2="1">
      <stop offset="0" stop-color="#2a1520"/>
      <stop offset="1" stop-color="#0d0710"/>
    </linearGradient>
    <linearGradient id="feGreen" x1="0" y1="0" x2="0" y2="1">
      <stop offset="0" stop-color="#2ecc71"/>
      <stop offset="1" stop-color="#1db954"/>
    </linearGradient>
    <linearGradient id="feWave" x1="0" y1="0" x2="1" y2="0">
      <stop offset="0" stop-color="#e60000"/>
      <stop offset="1" stop-color="#ff6633"/>
    </linearGradient>
  </defs>
  <rect width="400" height="400" fill="url(#feBg)"/>
  <!-- waveform / EQ bars -->
  <g transform="translate(56,168)">
    <rect x="0" y="40" width="18" height="40" rx="3" fill="url(#feWave)"/>
    <rect x="28" y="10" width="18" height="70" rx="3" fill="url(#feWave)"/>
    <rect x="56" y="-16" width="18" height="96" rx="3" fill="url(#feWave)"/>
    <rect x="84" y="20" width="18" height="60" rx="3" fill="url(#feWave)"/>
    <rect x="112" y="-4" width="18" height="84" rx="3" fill="url(#feWave)"/>
    <rect x="140" y="30" width="18" height="50" rx="3" fill="url(#feWave)"/>
    <rect x="168" y="0" width="18" height="80" rx="3" fill="url(#feWave)"/>
    <rect x="196" y="24" width="18" height="56" rx="3" fill="url(#feWave)"/>
    <rect x="224" y="42" width="18" height="38" rx="3" fill="url(#feWave)"/>
    <rect x="252" y="12" width="18" height="68" rx="3" fill="url(#feWave)"/>
  </g>
  <text x="200" y="70" font-family="Arial Black, sans-serif" font-weight="900" font-size="42" fill="#f4f4f7" text-anchor="middle">FREE FX</text>
  <text x="200" y="112" font-family="Arial Black, sans-serif" font-weight="900" font-size="30" fill="url(#feGreen)" text-anchor="middle">EFFECTS PACK</text>
  <rect x="120" y="330" width="160" height="44" rx="22" fill="url(#feGreen)"/>
  <text x="200" y="359" font-family="Arial Black, sans-serif" font-weight="900" font-size="22" fill="#0d0710" text-anchor="middle">DOWNLOAD</text>
</svg>
